# xmcd
#
# Track frame offsets:
#	150
#	19550
#	30670
#	44352
#	55357
#	68747
#	83762
#	94675
#	106522
#	118272
#	127357
#	136810
#	146675
#	154462
#	171782
#	184040
#	197052
#	209637
#
# Disc length: 2922 seconds
#
# Revision: 1
# Processed by: cddbd v1.5.2PL0 Copyright (c) Steve Scherf et al.
# Submitted via: audiograbber 1.83.01
#
DISCID=040b6812
DTITLE=Various Artist - Compact Country - Disc 5
DYEAR=1900
DGENRE=Country
TTITLE0=Kris Kristofferson - Me And Bobby McGee
TTITLE1=Roy Orbison - Only The Lonely
TTITLE2=Don Gibson - Release Me
TTITLE3=Duane Eddy - Rebel Rouser
TTITLE4=Tammy Wynette - D-I-V-O-R-C-E
TTITLE5=Michael Jones - My Woman, My Woman, My Wife
TTITLE6=Guy Mitchell - Belle, Belle, My Liberty Belle
TTITLE7=Frankie Laine - Mule Train
TTITLE8=Jerry Lee Lewis - C C Rider
TTITLE9=Johnny Cash - Blue Train
TTITLE10=Billy J Kramer - Bonapart's Retreat
TTITLE11=Carl Perkins - Everybody's Trying To Be My Baby
TTITLE12=Willie Nelson - You Wouldn't Cross The Street To Say Goodbye
TTITLE13=Neil Sedaka - Bimbo
TTITLE14=B J Thomas - Everybody's Talkin'
TTITLE15=Charlie McCoy - Candy Man
TTITLE16=Marty Robbins - Tumbling Tumbleweeds
TTITLE17=Faron Young - Congratulations
EXTD=
EXTT0=
EXTT1=
EXTT2=
EXTT3=
EXTT4=
EXTT5=
EXTT6=
EXTT7=
EXTT8=
EXTT9=
EXTT10=
EXTT11=
EXTT12=
EXTT13=
EXTT14=
EXTT15=
EXTT16=
EXTT17=
PLAYORDER=
